# xmcd
#
# Track frame offsets: 
#        150
#        27025
#        43038
#        73855
#        110848
#        134793
#        150563
#        175508
#        195790
#        220520
#
# Disc length: 3352 seconds
#
# Revision: 5
# Processed by: cddbd v1.5.2PL0 Copyright (c) Steve Scherf et al.
# Submitted via: ExactAudioCopyFreeDBPlugin 1.0
#
DISCID=840d160a
DTITLE=Bluesiana Triangle - Bluesiana II
DYEAR=1991
DGENRE=Blues
TTITLE0=Fonkalishus
TTITLE1=Doctor Blooze
TTITLE2=Cowan Woman
TTITLE3=For Art's Sake
TTITLE4=Skoshuss
TTITLE5=Love's Parody
TTITLE6=Santa Rosalia
TTITLE7=San Antone
TTITLE8=Montana Banana
TTITLE9=Tribute to Art
EXTD=YEAR: 1991
EXTT0=
EXTT1=
EXTT2=
EXTT3=
EXTT4=
EXTT5=
EXTT6=
EXTT7=
EXTT8=
EXTT9=
PLAYORDER=
